<svg width="91" height="24" viewBox="0 0 91 24" fill="none" xmlns="http://www.w3.org/2000/svg">
    <path d="M17.377 1.122a12.003 12.003 0 0 1 2.587 3.893 12.055 12.055 0 0 1-2.587 13.078 11.932 11.932 0 0 1-3.873 2.6 11.88 11.88 0 0 1-9.135 0 11.932 11.932 0 0 1-3.873-2.6l4.22-4.243a5.967 5.967 0 0 0 4.22 1.757 5.94 5.94 0 0 0 4.22-1.757 6.003 6.003 0 0 0 1.749-4.243 6.028 6.028 0 0 0-1.748-4.242l4.22-4.243z" fill="#6AF6FF"/>
    <path d="M34.705 18.047c-1.054 0-2.015-.242-2.884-.727a5.616 5.616 0 0 1-2.052-2.072c-.513-.898-.769-1.966-.769-3.205 0-1.225.256-2.28.77-3.163.512-.897 1.196-1.588 2.05-2.072.87-.485 1.831-.727 2.885-.727.997 0 1.838.214 2.522.641.698.428 1.225 1.083 1.58 1.966.357.883.535 2.002.535 3.355 0 1.382-.171 2.514-.513 3.397-.342.883-.855 1.539-1.538 1.966-.684.427-1.546.641-2.586.641zm.855-3.227a2.32 2.32 0 0 0 1.218-.32c.37-.214.662-.527.876-.94.213-.428.32-.933.32-1.517 0-.584-.106-1.076-.32-1.475a2.243 2.243 0 0 0-.876-.94 2.32 2.32 0 0 0-1.218-.32c-.47 0-.89.107-1.26.32a2.29 2.29 0 0 0-.856.94c-.213.4-.32.89-.32 1.475 0 .584.107 1.09.32 1.517.214.413.499.726.855.94.37.214.79.32 1.26.32zm2.543 3.035v-1.988l.02-3.824-.213-3.825V2h4.06v15.855h-3.867zM45.864 18.047c-.684 0-1.26-.228-1.73-.684-.47-.456-.706-1.032-.706-1.73 0-.727.235-1.304.705-1.731.47-.442 1.047-.663 1.731-.663.684 0 1.26.221 1.73.663.471.427.706 1.004.706 1.73 0 .699-.235 1.275-.705 1.731-.47.456-1.047.684-1.73.684zM57.06 17.855v-2.158l-.278-.535v-3.974c0-.641-.2-1.132-.598-1.474-.385-.356-1.004-.535-1.859-.535a5.44 5.44 0 0 0-1.688.278c-.57.171-1.054.413-1.453.727l-1.367-2.757c.655-.427 1.438-.755 2.35-.983a10.859 10.859 0 0 1 2.756-.363c1.88 0 3.334.435 4.36 1.304 1.04.854 1.56 2.2 1.56 4.038v6.432H57.06zm-3.419.192c-.926 0-1.71-.157-2.35-.47-.641-.314-1.133-.74-1.474-1.282a3.439 3.439 0 0 1-.492-1.816c0-.713.178-1.325.534-1.838.37-.527.933-.926 1.688-1.197.755-.285 1.731-.427 2.928-.427h2.735v2.116h-2.18c-.655 0-1.118.106-1.389.32-.256.214-.384.499-.384.855s.135.64.406.854c.27.214.64.32 1.11.32.442 0 .841-.106 1.197-.32.37-.228.641-.57.812-1.025l.556 1.495c-.214.798-.634 1.404-1.26 1.817-.613.399-1.425.598-2.437.598zM70.264 18.047c-.983 0-1.824-.214-2.522-.641-.698-.442-1.232-1.097-1.602-1.966-.356-.883-.534-2.008-.534-3.376 0-1.382.17-2.507.512-3.376.342-.883.855-1.538 1.539-1.966.698-.427 1.567-.64 2.607-.64 1.054 0 2.008.248 2.863.747a5.221 5.221 0 0 1 2.051 2.073c.513.883.77 1.937.77 3.162 0 1.225-.257 2.286-.77 3.184a5.221 5.221 0 0 1-2.051 2.072c-.855.485-1.81.727-2.863.727zM62.977 22V6.274h3.868v1.965l-.022 3.825.214 3.846V22h-4.06zm6.432-7.18a2.32 2.32 0 0 0 1.218-.32c.37-.214.662-.527.876-.94.228-.413.342-.912.342-1.496s-.114-1.082-.342-1.496a2.243 2.243 0 0 0-.876-.94 2.32 2.32 0 0 0-1.218-.32c-.456 0-.869.107-1.24.32a2.436 2.436 0 0 0-.875.94c-.214.414-.32.912-.32 1.496s.106 1.083.32 1.496c.228.413.52.726.876.94.37.214.783.32 1.239.32zM84.693 18.047c-.983 0-1.823-.214-2.52-.641-.699-.442-1.233-1.097-1.603-1.966-.357-.883-.535-2.008-.535-3.376 0-1.382.171-2.507.513-3.376.342-.883.855-1.538 1.539-1.966.698-.427 1.567-.64 2.606-.64 1.055 0 2.009.248 2.864.747a5.222 5.222 0 0 1 2.051 2.073c.513.883.77 1.937.77 3.162 0 1.225-.257 2.286-.77 3.184a5.222 5.222 0 0 1-2.051 2.072c-.855.485-1.81.727-2.864.727zM77.407 22V6.274h3.868v1.965l-.022 3.825.214 3.846V22h-4.06zm6.432-7.18a2.32 2.32 0 0 0 1.218-.32c.37-.214.662-.527.876-.94.228-.413.342-.912.342-1.496s-.114-1.082-.342-1.496a2.243 2.243 0 0 0-.876-.94 2.32 2.32 0 0 0-1.218-.32c-.456 0-.87.107-1.24.32a2.436 2.436 0 0 0-.876.94c-.213.414-.32.912-.32 1.496s.107 1.083.32 1.496c.228.413.52.726.876.94.37.214.784.32 1.24.32z" fill="#fff"/>
</svg>
