<svg width="20" height="20" viewBox="0 0 20 20" fill="none" xmlns="http://www.w3.org/2000/svg">
    <g clip-path="url(#an2tmqq5ga)">
        <path fill-rule="evenodd" clip-rule="evenodd" d="M10.416 1.667c-3.455 0-6.25 2.608-6.25 5.833 0 4.375 6.25 10.833 6.25 10.833s6.25-6.458 6.25-10.833c0-3.225-2.795-5.833-6.25-5.833zM5.952 7.5c0-2.3 2-4.167 4.464-4.167 2.464 0 4.464 1.867 4.464 4.167 0 2.4-2.571 5.992-4.464 8.233C8.559 13.508 5.952 9.875 5.952 7.5zm4.464-2.083c-1.233 0-2.232.932-2.232 2.083 0 1.15 1 2.083 2.232 2.083.797 0 1.534-.397 1.933-1.041a1.964 1.964 0 0 0 0-2.084c-.399-.644-1.136-1.041-1.933-1.041z" fill="#DBDCE0"/>
        <mask id="1kqupsvfzb" style="mask-type:luminance" maskUnits="userSpaceOnUse" x="4" y="1" width="13" height="18">
            <path fill-rule="evenodd" clip-rule="evenodd" d="M10.416 1.667c-3.455 0-6.25 2.608-6.25 5.833 0 4.375 6.25 10.833 6.25 10.833s6.25-6.458 6.25-10.833c0-3.225-2.795-5.833-6.25-5.833zM5.952 7.5c0-2.3 2-4.167 4.464-4.167 2.464 0 4.464 1.867 4.464 4.167 0 2.4-2.571 5.992-4.464 8.233C8.559 13.508 5.952 9.875 5.952 7.5zm4.464-2.083c-1.233 0-2.232.932-2.232 2.083 0 1.15 1 2.083 2.232 2.083.797 0 1.534-.397 1.933-1.041a1.964 1.964 0 0 0 0-2.084c-.399-.644-1.136-1.041-1.933-1.041z" fill="#fff"/>
        </mask>
    </g>
    <defs>
        <clipPath id="an2tmqq5ga">
            <path fill="#fff" d="M0 0h20v20H0z"/>
        </clipPath>
    </defs>
</svg>
