<svg width="107" height="32" viewBox="0 0 107 32" fill="none" xmlns="http://www.w3.org/2000/svg">
    <path d="M12.667 20c9.913 0 16.667 0 16.667 12H16.667a4 4 0 0 1-4-4v-8zM12.667 0a9 9 0 1 1 0 18V0z" fill="#6AF6FF"/>
    <path d="M2.667 0v32h4a4 4 0 0 0 4-4V0h-8zM43.013 8c2.468 0 4.262.475 5.381 1.426 1.135.935 1.702 2.383 1.702 4.345 0 1.946-.582 3.372-1.748 4.277-1.15.905-2.913 1.358-5.289 1.358H40.92v4.413h-3.587V8h5.68zm.322 8.35c1.196 0 2.008-.233 2.438-.7.429-.484.644-1.178.644-2.083 0-.92-.284-1.569-.851-1.946-.552-.392-1.418-.588-2.599-.588H40.92v5.318h2.415zM54.743 17.731c0 .996.283 1.81.85 2.444.583.619 1.32.928 2.208.928.905 0 1.64-.309 2.208-.928.583-.633.874-1.448.874-2.444s-.291-1.81-.874-2.444c-.567-.634-1.303-.95-2.208-.95-.889 0-1.625.316-2.207.95-.568.634-.851 1.448-.851 2.444zm9.612 0c0 1.765-.62 3.252-1.862 4.458C61.25 23.396 59.687 24 57.8 24c-1.87 0-3.426-.604-4.668-1.81-1.242-1.207-1.863-2.694-1.863-4.459 0-1.765.621-3.251 1.863-4.458 1.242-1.222 2.798-1.833 4.668-1.833 1.886 0 3.45.61 4.692 1.833 1.241 1.207 1.862 2.693 1.862 4.458zM72.313 14.63c-1.027 0-1.794.363-2.3 1.087-.506.71-.759 1.652-.759 2.829v5.273h-3.45V11.644h3.45v1.606c.445-.498.997-.92 1.656-1.267.675-.347 1.357-.528 2.047-.543l.023 3.19h-.667zM79.164 14.088v5.454c0 .467.122.837.368 1.109.245.256.536.384.873.384.644 0 1.189-.286 1.633-.86l1.288 2.377C82.253 23.517 81.118 24 79.923 24c-1.181 0-2.185-.385-3.013-1.154-.813-.77-1.219-1.818-1.219-3.146v-5.612h-1.449v-2.444h1.45V8h3.472v3.644h2.99v2.444h-2.99zM86.611 8H90.2v15.819H86.61V8zM97.767 8c2.867 0 5.067.694 6.6 2.082 1.533 1.373 2.299 3.29 2.299 5.748 0 2.46-.751 4.406-2.253 5.839-1.487 1.433-3.764 2.15-6.83 2.15h-5.496V8h5.68zm.184 12.696c1.64 0 2.897-.408 3.771-1.222.889-.815 1.334-2 1.334-3.553 0-1.554-.445-2.746-1.334-3.576-.874-.845-2.223-1.267-4.047-1.267h-2.001v9.618h2.277z" fill="#fff"/>
</svg>
